# xmcd
#
# Track frame offsets: 
#        183
#        19085
#        33898
#        49318
#        63498
#        80008
#        99768
#        112505
#        132285
#        143470
#        153973
#        167865
#
# Disc length: 2505 seconds
#
# Revision: 10
# Processed by: cddbd v1.5.2PL0 Copyright (c) Steve Scherf et al.
# Submitted via: ExactAudioCopyFreeDBPlugin 1.0
#
DISCID=8b09c70c
DTITLE=K. D. Lang - Absolute Torch and Twang
DYEAR=1989
DGENRE=Country
TTITLE0=Luck in My Eyes
TTITLE1=Three Days
TTITLE2=Trail of Broken Hearts
TTITLE3=Big Boned Gal
TTITLE4=Didn't I
TTITLE5=Wallflower Waltz
TTITLE6=Full Moon Full of Love
TTITLE7=Pullin' Back the Reins
TTITLE8=Big Big Love
TTITLE9=It's Me
TTITLE10=Walkin' in and out of Your Arms
TTITLE11=Nowhere to Stand
EXTD=
EXTT0=
EXTT1=
EXTT2=
EXTT3=
EXTT4=
EXTT5=
EXTT6=
EXTT7=
EXTT8=
EXTT9=
EXTT10=
EXTT11=
PLAYORDER=
